<svg width="477" height="239" viewBox="0 0 477 239" fill="none" xmlns="http://www.w3.org/2000/svg">
<path d="M477 90H0L45.0522 103H435.9L477 90Z" fill="white"/>
<path d="M139.933 112H19L57.0641 124H155L139.933 112Z" fill="white"/>
<path d="M168.49 133H44L83.1837 146H184L168.49 133Z" fill="white"/>
<path d="M309.621 133H435L395.536 146H294L309.621 133Z" fill="white"/>
<path d="M293 154H404L373.594 167H296.936L293 154Z" fill="white"/>
<path d="M184 154H73L103.406 167H180.064L184 154Z" fill="white"/>
<path d="M178 176H108L126.901 188H174.553L178 176Z" fill="white"/>
<path d="M300 175H369L350.373 187H303.411L300 175Z" fill="white"/>
<path d="M337.067 112H458L419.936 124H322L337.067 112Z" fill="white"/>
<path d="M239.28 0L208.815 90.7645H119L192.593 147.839L159.753 239L239.28 179.944L316.83 239L284.781 147.839L356 90.7645H266.977L239.28 0Z" fill="white"/>
</svg>
