<svg width="30" height="30" viewBox="0 0 30 30" fill="none" xmlns="http://www.w3.org/2000/svg">
<path d="M14.9999 10.0535C12.2761 10.0535 10.0533 12.2764 10.0533 15.0002C10.0533 17.7241 12.2761 19.9469 14.9999 19.9469C17.7238 19.9469 19.9466 17.7241 19.9466 15.0002C19.9466 12.2764 17.7238 10.0535 14.9999 10.0535ZM29.8363 15.0002C29.8363 12.9518 29.8548 10.9219 29.7398 8.87718C29.6247 6.50218 29.0829 4.39437 27.3462 2.65765C25.6058 0.917217 23.5017 0.379131 21.1267 0.264092C19.0783 0.149053 17.0484 0.167608 15.0036 0.167608C12.9552 0.167608 10.9253 0.149053 8.8806 0.264092C6.5056 0.379131 4.39778 0.920928 2.66106 2.65765C0.920635 4.39808 0.382549 6.50218 0.26751 8.87718C0.152471 10.9256 0.171026 12.9555 0.171026 15.0002C0.171026 17.045 0.152471 19.0785 0.26751 21.1233C0.382549 23.4983 0.924346 25.6061 2.66106 27.3428C4.40149 29.0832 6.5056 29.6213 8.8806 29.7364C10.929 29.8514 12.9589 29.8328 15.0036 29.8328C17.0521 29.8328 19.082 29.8514 21.1267 29.7364C23.5017 29.6213 25.6095 29.0795 27.3462 27.3428C29.0867 25.6024 29.6247 23.4983 29.7398 21.1233C29.8585 19.0785 29.8363 17.0487 29.8363 15.0002ZM14.9999 22.6114C10.788 22.6114 7.3888 19.2121 7.3888 15.0002C7.3888 10.7883 10.788 7.38909 14.9999 7.38909C19.2118 7.38909 22.6111 10.7883 22.6111 15.0002C22.6111 19.2121 19.2118 22.6114 14.9999 22.6114ZM22.9228 8.85491C21.9394 8.85491 21.1452 8.06077 21.1452 7.07737C21.1452 6.09397 21.9394 5.29983 22.9228 5.29983C23.9062 5.29983 24.7003 6.09397 24.7003 7.07737C24.7006 7.31088 24.6548 7.54216 24.5656 7.75795C24.4764 7.97375 24.3455 8.16982 24.1803 8.33494C24.0152 8.50005 23.8192 8.63098 23.6034 8.7202C23.3876 8.80943 23.1563 8.8552 22.9228 8.85491Z" fill="white"/>
</svg>
