<svg width="57" height="57" viewBox="0 0 57 57" fill="none" xmlns="http://www.w3.org/2000/svg">
<g filter="url(#filter0_d)">
<path d="M28.4633 26.05C27.8145 26.05 27.1923 26.3081 26.7335 26.7676C26.2747 27.2271 26.017 27.8502 26.017 28.5C26.017 29.1498 26.2747 29.7729 26.7335 30.2324C27.1923 30.6919 27.8145 30.95 28.4633 30.95C29.1121 30.95 29.7343 30.6919 30.1931 30.2324C30.6519 29.7729 30.9096 29.1498 30.9096 28.5C30.9096 27.8502 30.6519 27.2271 30.1931 26.7676C29.7343 26.3081 29.1121 26.05 28.4633 26.05ZM29.6865 4C40.695 4 40.9641 12.7465 35.1907 15.6375C32.7688 16.838 31.6925 19.4105 31.2277 21.689C32.4019 22.179 33.4294 22.9385 34.2122 23.9185C43.2636 19.0185 53 20.954 53 29.725C53 40.75 44.2666 40.995 41.3799 35.1885C40.1568 32.763 37.5637 31.685 35.2886 31.2195C34.7993 32.3955 34.0409 33.4 33.0624 34.233C37.9306 43.2735 35.998 53 27.2401 53C16.2317 53 16.0115 44.229 21.7848 41.338C24.1822 40.1375 25.2586 37.5895 25.7479 35.3355C24.5492 34.8455 23.4973 34.0615 22.7144 33.0815C13.6875 37.9325 4 36.0215 4 27.275C4 16.25 12.7089 15.9805 15.5956 21.787C16.8188 24.2125 19.3874 25.266 21.6625 25.7315C22.1273 24.5555 22.9101 23.5265 23.9131 22.7425C19.0449 13.702 20.9775 4 29.6865 4Z" fill="#00FF85"/>
</g>
<defs>
<filter id="filter0_d" x="0" y="0" width="57" height="57" filterUnits="userSpaceOnUse" color-interpolation-filters="sRGB">
<feFlood flood-opacity="0" result="BackgroundImageFix"/>
<feColorMatrix in="SourceAlpha" type="matrix" values="0 0 0 0 0 0 0 0 0 0 0 0 0 0 0 0 0 0 127 0"/>
<feOffset/>
<feGaussianBlur stdDeviation="2"/>
<feColorMatrix type="matrix" values="0 0 0 0 1 0 0 0 0 1 0 0 0 0 1 0 0 0 1 0"/>
<feBlend mode="normal" in2="BackgroundImageFix" result="effect1_dropShadow"/>
<feBlend mode="normal" in="SourceGraphic" in2="effect1_dropShadow" result="shape"/>
</filter>
</defs>
</svg>
