<svg width="56" height="43" viewBox="0 0 56 43" fill="none" xmlns="http://www.w3.org/2000/svg">
<g filter="url(#filter0_d)">
<path d="M23.7578 32.4582C22.5859 31.2773 22 29.8525 22 28.1835C22 26.5146 22.5938 25.0819 23.7812 23.8853L49.2812 6.78677L32.2656 32.4818C31.1094 33.6469 29.6953 34.2294 28.0234 34.2294C26.3516 34.2294 24.9297 33.639 23.7578 32.4582ZM28 6.92848C25.1562 6.92848 22.4297 7.49528 19.8203 8.62888C17.2109 9.76248 14.9688 11.274 13.0938 13.1633C11.2188 15.0526 9.72656 17.3041 8.61719 19.9177C7.50781 22.5313 6.95312 25.2708 6.95312 28.1363C6.95312 31.4741 7.70312 34.6545 9.20312 37.6775L6.57812 39C4.85937 35.5677 4 31.9622 4 28.1835C4 24.8772 4.63281 21.7362 5.89844 18.7605C7.16406 15.7848 8.86719 13.2184 11.0078 11.0614C13.1484 8.90441 15.7031 7.18826 18.6719 5.91296C21.6406 4.63765 24.75 4 28 4C33.0312 4 37.6094 5.44849 41.7344 8.34548L39.0625 10.1404C35.6562 7.9991 31.9688 6.92848 28 6.92848ZM47.7344 14.3914C50.5781 18.5479 52 23.1453 52 28.1835C52 31.9622 51.1406 35.5677 49.4219 39L46.7969 37.6302C48.2969 34.6388 49.0469 31.4741 49.0469 28.1363C49.0469 24.2002 48.0156 20.516 45.9531 17.0837L47.7344 14.3914Z" fill="#00FF85"/>
</g>
<defs>
<filter id="filter0_d" x="0" y="0" width="56" height="43" filterUnits="userSpaceOnUse" color-interpolation-filters="sRGB">
<feFlood flood-opacity="0" result="BackgroundImageFix"/>
<feColorMatrix in="SourceAlpha" type="matrix" values="0 0 0 0 0 0 0 0 0 0 0 0 0 0 0 0 0 0 127 0"/>
<feOffset/>
<feGaussianBlur stdDeviation="2"/>
<feColorMatrix type="matrix" values="0 0 0 0 1 0 0 0 0 1 0 0 0 0 1 0 0 0 1 0"/>
<feBlend mode="normal" in2="BackgroundImageFix" result="effect1_dropShadow"/>
<feBlend mode="normal" in="SourceGraphic" in2="effect1_dropShadow" result="shape"/>
</filter>
</defs>
</svg>
