<svg width="29" height="28" viewBox="0 0 29 28" fill="none" xmlns="http://www.w3.org/2000/svg">
<path d="M24.1667 8.78646C23.4618 9.09028 22.7003 9.29688 21.8822 9.40625C22.7381 8.92014 23.3234 8.2092 23.638 7.27344C22.8199 7.73524 21.9766 8.04514 21.1081 8.20312C20.3403 7.40104 19.3774 7 18.2194 7C17.1243 7 16.1898 7.3737 15.4157 8.12109C14.6416 8.86849 14.2546 9.77083 14.2546 10.8281C14.2546 11.1806 14.286 11.4722 14.349 11.7031C12.7253 11.6181 11.2023 11.2231 9.77995 10.5182C8.35764 9.81337 7.14931 8.87153 6.15495 7.69271C5.78993 8.30035 5.60742 8.94444 5.60742 9.625C5.60742 11.0104 6.18012 12.0738 7.32552 12.8151C6.73394 12.803 6.1046 12.645 5.4375 12.3411V12.3776C5.4375 13.2891 5.75217 14.1003 6.38151 14.8112C7.01085 15.5221 7.78494 15.9627 8.70378 16.1328C8.33876 16.23 8.0178 16.2786 7.74089 16.2786C7.57726 16.2786 7.33181 16.2543 7.00456 16.2057C7.26888 16.9714 7.73774 17.6033 8.41113 18.1016C9.08453 18.5998 9.84918 18.855 10.7051 18.8672C9.24501 19.9609 7.60243 20.5078 5.77734 20.5078C5.45009 20.5078 5.13542 20.4896 4.83333 20.4531C6.69618 21.5955 8.72266 22.1667 10.9128 22.1667C12.3225 22.1667 13.6441 21.951 14.8776 21.5195C16.1111 21.0881 17.1684 20.5109 18.0495 19.7878C18.9306 19.0647 19.6889 18.2322 20.3245 17.2904C20.9602 16.3485 21.4322 15.3641 21.7406 14.3372C22.0489 13.3103 22.2031 12.2865 22.2031 11.2656C22.2031 11.0469 22.1968 10.8828 22.1842 10.7734C22.9772 10.2266 23.638 9.56424 24.1667 8.78646ZM29 5.25V22.75C29 24.1962 28.4682 25.4327 27.4046 26.4596C26.341 27.4865 25.0603 28 23.5625 28H5.4375C3.93967 28 2.65896 27.4865 1.59538 26.4596C0.531793 25.4327 0 24.1962 0 22.75V5.25C0 3.80382 0.531793 2.56727 1.59538 1.54036C2.65896 0.513455 3.93967 0 5.4375 0H23.5625C25.0603 0 26.341 0.513455 27.4046 1.54036C28.4682 2.56727 29 3.80382 29 5.25Z" fill="white"/>
</svg>
