<svg width="57" height="45" viewBox="0 0 57 45" fill="none" xmlns="http://www.w3.org/2000/svg">
<g filter="url(#filter0_d)">
<path d="M49.9375 10.1667H46.875V5.54167C46.875 4.6899 46.1898 4 45.3438 4H36.1562C35.3102 4 34.625 4.6899 34.625 5.54167V10.1667H22.375V5.54167C22.375 4.6899 21.6898 4 20.8438 4H11.6562C10.8102 4 10.125 4.6899 10.125 5.54167V10.1667H7.0625C5.37143 10.1667 4 11.5474 4 13.25V37.9167C4 39.6192 5.37143 41 7.0625 41H49.9375C51.6286 41 53 39.6192 53 37.9167V13.25C53 11.5474 51.6286 10.1667 49.9375 10.1667ZM22.375 23.2708C22.375 23.6967 22.0324 24.0417 21.6094 24.0417H10.8906C10.4676 24.0417 10.125 23.6967 10.125 23.2708V21.7292C10.125 21.3033 10.4676 20.9583 10.8906 20.9583H21.6094C22.0324 20.9583 22.375 21.3033 22.375 21.7292V23.2708ZM46.875 23.2708C46.875 23.6967 46.5324 24.0417 46.1094 24.0417H42.2812V27.8958C42.2812 28.3217 41.9386 28.6667 41.5156 28.6667H39.9844C39.5614 28.6667 39.2188 28.3217 39.2188 27.8958V24.0417H35.3906C34.9676 24.0417 34.625 23.6967 34.625 23.2708V21.7292C34.625 21.3033 34.9676 20.9583 35.3906 20.9583H39.2188V17.1042C39.2188 16.6783 39.5614 16.3333 39.9844 16.3333H41.5156C41.9386 16.3333 42.2812 16.6783 42.2812 17.1042V20.9583H46.1094C46.5324 20.9583 46.875 21.3033 46.875 21.7292V23.2708Z" fill="#00FF85"/>
</g>
<defs>
<filter id="filter0_d" x="0" y="0" width="57" height="45" filterUnits="userSpaceOnUse" color-interpolation-filters="sRGB">
<feFlood flood-opacity="0" result="BackgroundImageFix"/>
<feColorMatrix in="SourceAlpha" type="matrix" values="0 0 0 0 0 0 0 0 0 0 0 0 0 0 0 0 0 0 127 0"/>
<feOffset/>
<feGaussianBlur stdDeviation="2"/>
<feColorMatrix type="matrix" values="0 0 0 0 1 0 0 0 0 1 0 0 0 0 1 0 0 0 1 0"/>
<feBlend mode="normal" in2="BackgroundImageFix" result="effect1_dropShadow"/>
<feBlend mode="normal" in="SourceGraphic" in2="effect1_dropShadow" result="shape"/>
</filter>
</defs>
</svg>
